<?xml version="1.0" encoding="UTF-8"?>
<svg width="400" height="365" version="1.0" viewBox="2 5 400 365" xmlns="http://www.w3.org/2000/svg" xmlns:cc="http://creativecommons.org/ns#" xmlns:dc="http://purl.org/dc/elements/1.1/" xmlns:rdf="http://www.w3.org/1999/02/22-rdf-syntax-ns#">
<metadata>
<rdf:RDF>
<cc:Work rdf:about="">
<dc:format>image/svg+xml</dc:format>
<dc:type rdf:resource="http://purl.org/dc/dcmitype/StillImage"/>
</cc:Work>
</rdf:RDF>
</metadata>
<g>
<text x="201.66161" y="45.949749" color-interpolation="linearRGB" fill="#000000" font-family="serif" font-size="20px" stroke-width="1px" text-align="center" text-anchor="middle" style="line-height:125%" xml:space="preserve"><tspan x="201.66161" y="45.949749" text-align="center" text-anchor="middle">Scissors</tspan></text>
<text x="353.16162" y="156.44975" color-interpolation="linearRGB" fill="#000000" font-family="serif" font-size="20px" stroke-linejoin="round" stroke-opacity=".50196" stroke-width="2" text-align="center" text-anchor="middle" style="line-height:125%" xml:space="preserve"><tspan x="353.16162" y="156.44975">Paper</tspan></text>
<text x="295.66162" y="335.44974" color-interpolation="linearRGB" fill="#000000" font-family="serif" font-size="20px" stroke-width="1px" text-align="center" text-anchor="middle" style="line-height:125%" xml:space="preserve"><tspan x="295.66162" y="335.44974">Rock</tspan></text>
<text x="106.66161" y="335.44974" color-interpolation="linearRGB" fill="#000000" font-family="serif" font-size="20px" stroke-width="1px" text-align="center" text-anchor="middle" style="line-height:125%" xml:space="preserve"><tspan x="106.66161" y="335.44974">Lizard</tspan></text>
<text x="48.661613" y="156.44975" color-interpolation="linearRGB" fill="#000000" font-family="serif" font-size="20px" stroke-width="1px" text-align="center" text-anchor="middle" style="line-height:125%" xml:space="preserve"><tspan x="48.661613" y="156.44975">Spock</tspan></text>
<path d="m81.75 127.5 86.75-62.75" color-interpolation="linearRGB" fill="none" stroke="#000" stroke-width="1.75"/>
<path d="m233.25 64 87.25 63.5" color-interpolation="linearRGB" fill="none" stroke="#000" stroke-width="1.75"/>
<path d="m341.25 188.75-33.5 103.25" color-interpolation="linearRGB" fill="none" stroke="#000" stroke-width="1.75"/>
<path d="m254.5 330.75-108.25-0.5" color-interpolation="linearRGB" fill="none" stroke="#000" stroke-width="1.75"/>
<path d="m94.25 292-33.75-105.25" color-interpolation="linearRGB" fill="none" stroke="#000" stroke-width="1.75"/>
<path d="m188.28 78.913-68.943 213.55" color-interpolation="linearRGB" fill="none" stroke="#000" stroke-width="1.75"/>
<path d="m138.78 307.31 182.79-131.88" color-interpolation="linearRGB" fill="none" stroke="#000" stroke-width="1.75"/>
<path d="m312.73 152.1-224.86-0.7071" color-interpolation="linearRGB" fill="none" stroke="#000" stroke-width="1.75"/>
<path d="m79.385 173.67 182.79 132.94" color-interpolation="linearRGB" fill="none" stroke="#000" stroke-width="1.75"/>
<path d="m283.03 291.75-69.65-213.19" color-interpolation="linearRGB" fill="none" stroke="#000" stroke-width="1.75"/>
<text transform="matrix(.32132 .94697 -.94697 .32132 0 0)" x="260.55179" y="-163.71159" color-interpolation="linearRGB" fill="#000000" font-family="sans-serif" font-size="12px" font-weight="bold" stroke-linejoin="round" stroke-opacity=".50196" stroke-width="2" text-align="center" text-anchor="middle" xml:space="preserve"><tspan x="260.55179" y="-163.71159">crushes</tspan></text>
<text x="212.375" y="342.75" color-interpolation="linearRGB" fill="#000000" font-family="sans-serif" font-size="12px" font-weight="bold" stroke-width="1px" text-align="center" text-anchor="middle" xml:space="preserve"><tspan x="212.375" y="342.75">crushes</tspan></text>
<text transform="matrix(.81721 -.57634 .57634 .81721 0 0)" x="49.410969" y="325.76086" color-interpolation="linearRGB" fill="#000000" font-family="sans-serif" font-size="12px" font-weight="bold" stroke-linejoin="round" stroke-opacity=".50196" stroke-width="2" text-align="center" text-anchor="middle" xml:space="preserve"><tspan x="49.410969" y="325.76086">eats</tspan></text>
<text transform="matrix(.31287 .9498 -.9498 .31287 0 0)" x="263.32443" y="13.129782" color-interpolation="linearRGB" fill="#000000" font-family="sans-serif" font-size="12px" font-weight="bold" stroke-width="1px" text-align="center" text-anchor="middle" xml:space="preserve"><tspan x="263.32443" y="13.129782">poisons</tspan></text>
<text x="205.75" y="164.5" color-interpolation="linearRGB" fill="#000000" font-family="sans-serif" font-size="12px" font-weight="bold" stroke-linejoin="round" stroke-opacity=".50196" stroke-width="2" text-align="center" text-anchor="middle" xml:space="preserve"><tspan x="205.75" y="164.5">disproves</tspan></text>
<text transform="matrix(.3075 -.95155 .95155 .3075 0 0)" x="-121.67789" y="393.70535" color-interpolation="linearRGB" fill="#000000" font-family="sans-serif" font-size="12px" font-weight="bold" stroke-linejoin="round" stroke-opacity=".50196" stroke-width="2" text-align="center" text-anchor="middle" xml:space="preserve"><tspan x="-121.67789" y="393.70535">covers</tspan></text>
<text transform="matrix(.81169 .5841 -.5841 .81169 0 0)" x="268.80179" y="-88.439384" color-interpolation="linearRGB" fill="#000000" font-family="sans-serif" font-size="12px" font-weight="bold" stroke-width="1px" text-align="center" text-anchor="middle" xml:space="preserve"><tspan x="268.80179" y="-88.439384" fill="#000000" font-size="12px" font-weight="bold">cuts</tspan></text>
<text transform="matrix(.80552 .59257 -.59257 .80552 0 0)" x="285.3074" y="86.804764" color-interpolation="linearRGB" fill="#000000" font-family="sans-serif" font-size="12px" font-weight="bold" stroke-linejoin="round" stroke-opacity=".50196" stroke-width="2" text-align="center" text-anchor="middle" xml:space="preserve"><tspan x="285.3074" y="86.804764">vaporizes</tspan></text>
<text transform="matrix(.81838 -.57467 .57467 .81838 0 0)" x="35.483101" y="145.52715" color-interpolation="linearRGB" fill="#000000" font-family="sans-serif" font-size="12px" font-weight="bold" stroke-width="1px" text-align="center" text-anchor="middle" xml:space="preserve"><tspan x="35.483101" y="145.52715" fill="#000000" font-weight="bold">smashes</tspan></text>
<text transform="matrix(.31235 -.94997 .94997 .31235 0 0)" x="-127.01218" y="216.69319" color-interpolation="linearRGB" fill="#000000" font-family="sans-serif" font-size="12px" font-weight="bold" stroke-linejoin="round" stroke-opacity=".50196" stroke-width="2" text-align="center" text-anchor="middle" xml:space="preserve"><tspan x="-127.01218" y="216.69319">decapitates</tspan></text>
<path d="m141 73.625 29.875-10.625-19.5 24.875" color-interpolation="linearRGB" fill="none" stroke="#000" stroke-width="1.25"/>
<path d="m213.5 107.38-1-31.75 17.5 26" color-interpolation="linearRGB" fill="none" stroke="#000" stroke-width="1.25"/>
<path d="m303.38 104.38 19.75 25-29.875-11" color-interpolation="linearRGB" fill="none" stroke="#000" stroke-width="1.25"/>
<path d="m294.38 184.38 29.5-10.625-19.625 24.875" color-interpolation="linearRGB" fill="none" stroke="#000" stroke-width="1.25"/>
<path d="m324.5 268.5-17.75 26.625 1.25-32" color-interpolation="linearRGB" fill="none" stroke="#000" stroke-width="1.25"/>
<path d="m245 283.12 19.75 25.375-29.875-11" color-interpolation="linearRGB" fill="none" stroke="#000" stroke-width="1.25"/>
<path d="m173.5 339.12-30.5-8.875 30.75-8.625" color-interpolation="linearRGB" fill="none" stroke="#000" stroke-width="1.25"/>
<path d="m136 268.88-17.625 26.625 1-32" color-interpolation="linearRGB" fill="none" stroke="#000" stroke-width="1.25"/>
<path d="m60.5 215.62-1-32 17.5 26.5" color-interpolation="linearRGB" fill="none" stroke="#000" stroke-width="1.25"/>
<path d="m115.12 160.12-30.375-8.625 30.625-8.875" color-interpolation="linearRGB" fill="none" stroke="#000" stroke-width="1.25"/>
<text x="200.41161" y="44.949749" color-interpolation="linearRGB" fill="#00d0f1" font-family="serif" font-size="20px" stroke-width="1px" text-align="center" text-anchor="middle" style="line-height:125%" xml:space="preserve"><tspan text-align="center" text-anchor="middle">Scissors</tspan></text>
<text x="351.91162" y="155.44975" color-interpolation="linearRGB" fill="#f1d500" font-family="serif" font-size="20px" stroke-linejoin="round" stroke-width=".1" text-align="center" text-anchor="middle" style="line-height:125%" xml:space="preserve"><tspan x="351.91162" y="155.44975">Paper</tspan></text>
<text x="294.41162" y="334.44974" color-interpolation="linearRGB" fill="#5100f1" font-family="serif" font-size="20px" stroke-width="1px" text-align="center" text-anchor="middle" style="line-height:125%" xml:space="preserve"><tspan x="294.41162" y="334.44974">Rock</tspan></text>
<text x="105.41161" y="334.44974" color-interpolation="linearRGB" fill="#51c651" font-family="serif" font-size="20px" stroke-width="1px" text-align="center" text-anchor="middle" style="line-height:125%" xml:space="preserve"><tspan x="105.41161" y="334.44974">Lizard</tspan></text>
<text x="47.411613" y="155.44975" color-interpolation="linearRGB" fill="#f13551" font-family="serif" font-size="20px" stroke-width="1px" text-align="center" text-anchor="middle" style="line-height:125%" xml:space="preserve"><tspan x="47.411613" y="155.44975" text-align="center" text-anchor="middle">Spock</tspan></text>
<path d="m80.5 126.5 86.75-62.75" color-interpolation="linearRGB" fill="none" stroke="#f13551" stroke-width="1.75"/>
<path d="m232 63 87.25 63.5" color-interpolation="linearRGB" fill="none" stroke="#00d0f1" stroke-width="1.75"/>
<path d="m340 187.75-33.5 103.25" color-interpolation="linearRGB" fill="none" stroke="#f1d500" stroke-width="1.75"/>
<path d="m253.25 329.75-108.25-0.5" color-interpolation="linearRGB" fill="none" stroke="#5100f1" stroke-width="1.75"/>
<path d="m93 291-33.75-105.25" color-interpolation="linearRGB" fill="none" stroke="#51c651" stroke-width="1.75"/>
<path d="m187.03 77.913-68.943 213.55" color-interpolation="linearRGB" fill="none" stroke="#00d0f1" stroke-width="1.75"/>
<path d="m137.53 306.31 182.79-131.88" color-interpolation="linearRGB" fill="none" stroke="#51c651" stroke-width="1.75"/>
<path d="m311.48 151.1-224.86-0.7071" color-interpolation="linearRGB" fill="none" stroke="#f1d500" stroke-width="1.75"/>
<path d="m78.135 172.67 182.79 132.94" color-interpolation="linearRGB" fill="none" stroke="#f13551" stroke-width="1.75"/>
<path d="m281.78 290.75-69.65-213.19" color-interpolation="linearRGB" fill="none" stroke="#5100f1" stroke-width="1.75"/>
<text transform="matrix(.32132 .94697 -.94697 .32132 0 0)" x="259.20316" y="-162.84921" color-interpolation="linearRGB" fill="#5100f1" font-family="sans-serif" font-size="12px" font-weight="bold" stroke-width="1px" text-align="center" text-anchor="middle" xml:space="preserve"><tspan x="259.20316" y="-162.84921">crushes</tspan></text>
<text x="211.125" y="341.75" color-interpolation="linearRGB" fill="#5100f1" font-family="sans-serif" font-size="12px" font-weight="bold" stroke-width="1px" text-align="center" text-anchor="middle" xml:space="preserve"><tspan x="211.125" y="341.75">crushes</tspan></text>
<text transform="matrix(.81721 -.57634 .57634 .81721 0 0)" x="48.965786" y="324.22324" color-interpolation="linearRGB" fill="#51c651" font-family="sans-serif" font-size="12px" font-weight="bold" stroke-width="1px" text-align="center" text-anchor="middle" xml:space="preserve"><tspan x="48.965786" y="324.22324">eats</tspan></text>
<text transform="matrix(.31287 .9498 -.9498 .31287 0 0)" x="261.98355" y="14.004155" color-interpolation="linearRGB" fill="#51c651" font-family="sans-serif" font-size="12px" font-weight="bold" stroke-width="1px" text-align="center" text-anchor="middle" xml:space="preserve"><tspan x="261.98355" y="14.004155">poisons</tspan></text>
<text x="204.5" y="163.5" color-interpolation="linearRGB" fill="#f1d500" font-family="sans-serif" font-size="12px" font-weight="bold" stroke-linejoin="round" stroke-width=".1" text-align="center" text-anchor="middle" xml:space="preserve"><tspan x="204.5" y="163.5">disproves</tspan></text>
<text transform="matrix(.3075 -.95155 .95155 .3075 0 0)" x="-121.11072" y="392.2084" color-interpolation="linearRGB" fill="#f1d500" font-family="sans-serif" font-size="12px" font-weight="bold" stroke-linejoin="round" stroke-width=".1" text-align="center" text-anchor="middle" xml:space="preserve"><tspan x="-121.11072" y="392.2084">covers</tspan></text>
<text transform="matrix(.81169 .5841 -.5841 .81169 0 0)" x="267.20309" y="-88.52095" color-interpolation="linearRGB" fill="#00d0f1" font-family="sans-serif" font-size="12px" font-weight="bold" stroke-width="1px" text-align="center" text-anchor="middle" xml:space="preserve"><tspan x="267.20309" y="-88.52095" fill="#00d0f1" font-size="12px" font-weight="bold">cuts</tspan></text>
<text transform="matrix(.80552 .59257 -.59257 .80552 0 0)" x="283.70792" y="86.739952" color-interpolation="linearRGB" fill="#f13551" font-family="sans-serif" font-size="12px" font-weight="bold" stroke-width="1px" text-align="center" text-anchor="middle" xml:space="preserve"><tspan x="283.70792" y="86.739952">vaporizes</tspan></text>
<text transform="matrix(.81838 -.57467 .57467 .81838 0 0)" x="35.034794" y="143.99042" color-interpolation="linearRGB" fill="#f13551" font-family="sans-serif" font-size="12px" font-weight="bold" stroke-width="1px" text-align="center" text-anchor="middle" xml:space="preserve"><tspan x="35.034794" y="143.99042" font-weight="bold">smashes</tspan></text>
<text transform="matrix(.31235 -.94997 .94997 .31235 0 0)" x="-126.45265" y="215.19339" color-interpolation="linearRGB" fill="#00d0f1" font-family="sans-serif" font-size="12px" font-weight="bold" stroke-width="1px" text-align="center" text-anchor="middle" xml:space="preserve"><tspan x="-126.45265" y="215.19339">decapitates</tspan></text>
<path d="m139.75 72.625 29.875-10.625-19.5 24.875" color-interpolation="linearRGB" fill="none" stroke="#f13551" stroke-width="1.25"/>
<path d="m212.25 106.38-1-31.75 17.5 26" color-interpolation="linearRGB" fill="none" stroke="#5100f1" stroke-width="1.25"/>
<path d="m302.12 103.38 19.75 25-29.875-11" color-interpolation="linearRGB" fill="none" stroke="#00d0f1" stroke-width="1.25"/>
<path d="m293.12 183.38 29.5-10.625-19.625 24.875" color-interpolation="linearRGB" fill="none" stroke="#51c651" stroke-width="1.25"/>
<path d="m323.25 267.5-17.75 26.625 1.25-32" color-interpolation="linearRGB" fill="none" stroke="#f1d500" stroke-width="1.25"/>
<path d="m243.75 282.12 19.75 25.375-29.875-11" color-interpolation="linearRGB" fill="none" stroke="#f13551" stroke-width="1.25"/>
<path d="m172.25 338.12-30.5-8.875 30.75-8.625" color-interpolation="linearRGB" fill="none" stroke="#5100f1" stroke-width="1.25"/>
<path d="m134.75 267.88-17.625 26.625 1-32" color-interpolation="linearRGB" fill="none" stroke="#00d0f1" stroke-width="1.25"/>
<path d="m59.25 214.62-1-32 17.5 26.5" color-interpolation="linearRGB" fill="none" stroke="#51c651" stroke-width="1.25"/>
<path d="m113.88 159.12-30.375-8.625 30.625-8.875" color-interpolation="linearRGB" fill="none" stroke="#f1d500" stroke-width="1.25"/>
</g>
</svg>
