<?xml version="1.0" standalone="no"?>
<!DOCTYPE svg PUBLIC "-//W3C//DTD SVG 20010904//EN"
 "http://www.w3.org/TR/2001/REC-SVG-20010904/DTD/svg10.dtd">
<svg version="1.0" xmlns="http://www.w3.org/2000/svg"
 width="369.000000pt" height="369.000000pt" viewBox="0 0 369.000000 369.000000"
 preserveAspectRatio="xMidYMid meet">
<metadata>
Created by potrace 1.11, written by Peter Selinger 2001-2013
</metadata>
<g transform="translate(0.000000,369.000000) scale(0.100000,-0.100000)"
fill="#000000" stroke="none">
<path d="M697 3383 c-4 -3 -7 -11 -7 -17 0 -6 5 -5 12 2 6 6 9 14 7 17 -3 3
-9 2 -12 -2z"/>
<path d="M661 3336 c-1 -13 -6 -17 -21 -13 -11 3 -20 1 -20 -5 0 -5 -9 -6 -20
-3 -12 4 -20 2 -20 -6 0 -9 -4 -8 -15 1 -9 7 -32 10 -57 8 -24 -3 -53 -1 -65
3 -13 5 -23 5 -23 -1 0 -5 -29 -7 -65 -4 -41 3 -65 1 -65 -6 0 -14 -27 -13
-33 3 -4 9 -7 9 -15 -1 -5 -7 -16 -10 -27 -6 -13 5 -16 4 -11 -5 10 -16 -30
-55 -49 -47 -8 3 -21 -1 -28 -8 -7 -8 -27 -12 -43 -10 -16 2 -22 1 -12 -2 24
-7 32 -36 13 -46 -8 -5 -13 -14 -9 -19 3 -5 1 -8 -4 -7 -5 2 -24 -7 -41 -20
-28 -20 -31 -28 -31 -73 0 -43 3 -50 16 -45 9 3 20 6 25 6 6 0 7 5 4 10 -3 6
-2 10 4 10 6 0 8 7 5 15 -4 9 0 15 10 15 12 0 14 7 10 30 -5 23 -3 30 9 30 9
0 17 8 19 17 2 11 20 21 53 28 29 6 49 16 47 23 -1 7 5 12 14 12 9 0 14 6 11
13 -2 6 -13 11 -23 9 -18 -3 -18 -3 -2 14 14 14 20 16 30 6 18 -18 68 -15 68
3 0 17 18 19 54 5 27 -10 36 -30 14 -30 -7 0 -24 -9 -38 -20 -23 -18 -23 -20
-5 -20 17 0 15 -4 -13 -28 -21 -18 -31 -34 -27 -44 4 -10 -2 -22 -15 -31 -18
-13 -19 -15 -5 -21 23 -9 25 -8 19 9 -7 17 11 21 21 5 10 -17 33 -11 40 10 8
24 31 26 53 3 16 -16 17 -15 20 5 3 20 6 19 41 -16 21 -21 43 -36 48 -35 6 2
10 -9 9 -25 -1 -26 -3 -28 -21 -18 -11 6 -23 16 -27 21 -5 6 -8 5 -8 -4 0 -7
-6 -11 -14 -8 -10 4 -13 1 -9 -9 6 -15 19 -19 26 -6 2 4 2 1 0 -7 -2 -8 2 -19
9 -24 9 -6 6 -7 -10 -4 -19 5 -21 3 -11 -9 9 -11 8 -14 -6 -14 -15 0 -15 -2
-4 -16 7 -9 14 -24 16 -35 2 -16 -1 -17 -22 -9 -14 5 -24 6 -23 2 0 -4 -4 -18
-10 -32 -6 -14 -11 -18 -12 -10 -1 25 -19 -13 -22 -47 -3 -39 21 -98 35 -84 6
6 17 5 32 -5 19 -12 24 -12 41 2 16 13 16 15 2 10 -10 -3 -20 -1 -23 3 -7 12
24 23 38 14 19 -12 37 -12 37 -1 0 6 7 7 15 4 52 -21 51 -21 36 -3 -14 18 -5
22 17 9 7 -5 10 -16 6 -25 -3 -10 -1 -17 5 -17 6 0 11 -10 11 -21 0 -16 -5
-20 -20 -16 -12 3 -18 1 -14 -5 4 -6 -1 -8 -15 -3 -16 5 -20 3 -15 -9 4 -10 0
-18 -10 -21 -9 -3 -23 -7 -30 -9 -12 -4 -13 -12 -6 -38 8 -27 7 -30 -3 -16
-11 14 -36 22 -61 19 -5 0 -3 -7 3 -15 15 -18 -17 -32 -33 -14 -6 7 -10 11 -9
9 2 -2 -2 -10 -8 -17 -11 -13 -8 -19 32 -63 8 -9 13 -23 11 -30 -3 -9 2 -11
15 -7 14 5 23 0 29 -15 17 -36 70 -34 66 3 -1 3 5 9 13 12 8 3 15 2 15 -2 0
-4 9 -8 21 -8 16 0 19 5 14 26 -4 19 0 16 19 -15 25 -39 25 -39 26 -12 0 15
-4 27 -9 27 -5 0 -11 6 -14 14 -4 10 0 12 13 9 11 -3 22 -13 25 -23 3 -9 17
-22 30 -28 21 -10 25 -9 25 4 0 8 -6 14 -14 12 -8 -2 -16 1 -18 6 -2 5 5 10
14 12 21 3 34 -32 19 -50 -6 -7 -9 -15 -6 -18 3 -2 -3 -5 -13 -5 -9 0 -20 4
-23 9 -3 5 -12 -5 -19 -22 l-13 -31 -29 28 c-19 18 -27 22 -23 10 4 -10 2 -17
-5 -17 -6 0 -8 -5 -4 -11 5 -8 9 -8 14 1 5 8 15 1 30 -22 l24 -33 -29 25 c-25
22 -27 23 -21 5 5 -15 1 -13 -18 8 -13 15 -27 24 -30 18 -9 -14 5 -42 18 -34
7 4 6 1 -2 -9 -7 -8 -10 -23 -6 -32 8 -21 -4 -20 -30 1 -21 18 -21 18 -3 -4
11 -12 16 -26 13 -32 -4 -6 -3 -22 0 -38 6 -23 8 -25 14 -8 6 17 8 17 24 -6
59 -83 82 -130 56 -114 -19 12 -10 -11 10 -25 26 -18 26 -34 1 -20 -32 16 -64
13 -57 -6 5 -14 1 -16 -25 -10 l-31 6 16 -25 c19 -29 15 -31 -22 -8 l-27 17
23 -26 c19 -21 22 -30 13 -46 -8 -15 -8 -23 1 -28 7 -5 8 -3 4 5 -13 20 27 8
46 -14 17 -19 17 -19 14 15 -2 19 0 38 5 41 5 3 11 20 12 37 1 18 2 32 3 32
11 0 67 -36 71 -46 3 -8 10 -14 15 -14 6 0 7 8 4 17 -6 14 -3 14 15 -3 22 -19
22 -19 15 1 -6 17 -4 17 18 -4 15 -14 26 -28 26 -32 0 -21 21 -59 30 -54 6 4
4 14 -5 28 -10 16 -12 31 -6 52 l8 30 13 -27 12 -26 56 19 c30 11 52 16 49 12
-4 -3 -2 -12 4 -19 9 -11 17 -10 41 7 16 12 27 24 24 27 -3 3 -15 -3 -26 -13
-11 -10 -23 -15 -27 -11 -4 4 6 18 22 32 16 14 30 31 30 38 0 7 16 32 35 56
19 24 35 46 36 49 0 3 4 14 8 23 5 10 3 31 -2 47 -8 22 -7 31 1 35 8 3 8 8 -3
15 -13 9 -12 13 8 26 25 18 30 37 7 29 -22 -9 -19 20 5 41 11 10 18 21 15 24
-2 4 11 15 30 25 39 21 53 46 27 46 -15 0 -15 2 -2 10 8 5 39 10 68 10 28 0
52 5 52 10 0 6 6 10 14 10 22 0 64 40 48 46 -17 8 -5 24 19 24 24 0 37 29 18
41 -11 7 -9 10 9 15 12 4 22 11 22 16 0 5 -4 6 -10 3 -13 -8 -52 14 -45 26 4
5 -3 9 -14 9 -14 0 -21 6 -21 20 0 14 -5 18 -16 13 -10 -4 -20 0 -26 10 -5 10
-16 17 -23 17 -8 0 -15 7 -15 15 0 8 -4 15 -9 15 -5 0 -16 18 -25 40 -9 22
-20 40 -26 40 -6 0 -15 10 -20 23 -5 12 -23 40 -40 62 -16 22 -33 48 -36 58
-4 9 -10 17 -14 17 -4 0 -13 14 -20 30 -7 17 -17 30 -22 30 -5 0 -16 16 -24
36 -15 35 -64 97 -64 81 0 -12 -25 15 -33 35 -4 11 -12 15 -22 12 -8 -4 -15
-1 -15 6 0 18 -39 50 -55 44 -7 -3 -19 4 -27 15 -8 12 -18 18 -22 14 -4 -4
-11 -1 -16 7 -6 10 -12 11 -22 2 -8 -6 -19 -7 -28 -2 -8 5 -18 6 -22 4 -4 -3
-8 0 -8 7 0 9 -3 9 -14 0 -11 -9 -15 -9 -19 1 -3 8 -6 6 -6 -6z m259 -165 c0
-4 -7 -8 -15 -8 -8 0 -15 6 -15 13 0 8 6 11 15 8 8 -4 15 -9 15 -13z m-412
-80 c3 -8 -1 -12 -9 -9 -7 2 -15 10 -17 17 -3 8 1 12 9 9 7 -2 15 -10 17 -17z
m-18 -162 c0 -6 -4 -7 -10 -4 -5 3 -10 11 -10 16 0 6 5 7 10 4 6 -3 10 -11 10
-16z m-87 -141 c7 -25 3 -33 -12 -23 -13 8 -15 45 -2 45 5 0 11 -10 14 -22z
m279 -50 c3 -7 2 -23 0 -36 -5 -24 -5 -23 -18 8 -17 40 -17 40 0 40 8 0 16 -5
18 -12z m38 -13 c0 -8 -2 -15 -4 -15 -2 0 -6 7 -10 15 -3 8 -1 15 4 15 6 0 10
-7 10 -15z m-74 -10 c10 -8 14 -15 8 -15 -5 0 -19 7 -30 15 -10 8 -14 15 -8
15 5 0 19 -7 30 -15z m161 -267 c-3 -8 -6 -5 -6 6 -1 11 2 17 5 13 3 -3 4 -12
1 -19z m253 -144 c0 -8 -5 -12 -10 -9 -6 4 -8 11 -5 16 9 14 15 11 15 -7z
m-424 -111 c9 -12 22 -19 30 -16 10 3 12 0 8 -10 -3 -8 -1 -18 5 -22 6 -3 11
-10 11 -16 0 -5 -9 -4 -20 3 -11 7 -20 17 -20 23 0 5 -20 31 -44 57 -24 26
-41 49 -38 53 6 5 36 -27 68 -72z m212 32 c-3 -3 -9 2 -12 12 -6 14 -5 15 5 6
7 -7 10 -15 7 -18z m-48 -30 c0 -21 -17 -18 -30 4 -15 28 -13 33 10 21 11 -6
20 -17 20 -25z m22 3 c-7 -7 -12 -8 -12 -2 0 14 12 26 19 19 2 -3 -1 -11 -7
-17z m-101 -10 l20 -23 -7 25 c-5 22 -5 23 9 10 9 -8 19 -28 23 -45 6 -29 6
-29 -9 -10 l-16 20 -1 -20 c-1 -19 -2 -19 -20 4 -11 12 -17 27 -14 32 3 5 0 9
-5 9 -6 0 -11 5 -11 10 0 16 10 12 31 -12z m196 -174 c26 6 25 5 -7 -14 -34
-19 -68 -28 -41 -11 9 6 10 11 2 15 -6 4 -11 15 -11 24 1 15 2 15 15 -2 10
-14 21 -17 42 -12z"/>
<path d="M90 3260 c0 -5 7 -10 15 -10 8 0 15 5 15 10 0 6 -7 10 -15 10 -8 0
-15 -4 -15 -10z"/>
<path d="M2395 3080 c3 -5 8 -10 11 -10 2 0 4 5 4 10 0 6 -5 10 -11 10 -5 0
-7 -4 -4 -10z"/>
<path d="M435 3070 c3 -5 8 -10 11 -10 2 0 4 5 4 10 0 6 -5 10 -11 10 -5 0 -7
-4 -4 -10z"/>
<path d="M2535 2994 c-13 -5 -7 -74 6 -74 5 0 9 18 9 40 0 22 -1 40 -2 39 -2
0 -8 -3 -13 -5z"/>
<path d="M2177 2923 c-7 -37 8 -65 17 -35 4 12 4 27 0 33 -3 6 0 15 7 20 11 7
11 9 -2 9 -10 0 -19 -11 -22 -27z"/>
<path d="M2085 2850 c4 -7 -13 -10 -47 -9 -70 2 -240 -15 -258 -26 -7 -4 -26
-9 -42 -10 -15 -2 -34 -7 -41 -13 -6 -5 -34 -13 -62 -17 -27 -4 -59 -12 -70
-18 -11 -6 -23 -10 -27 -9 -5 1 -8 -2 -8 -8 0 -5 9 -10 21 -10 29 0 18 -25
-12 -27 -33 -2 -69 -14 -69 -23 0 -15 28 -31 35 -20 7 12 25 4 25 -11 0 -6 -5
-7 -10 -4 -6 4 -17 1 -25 -5 -12 -10 -16 -9 -21 4 -8 20 -24 21 -24 1 0 -19
30 -34 67 -33 22 1 30 5 26 14 -4 10 4 14 28 14 24 0 30 3 20 9 -10 6 -4 11
20 15 39 8 78 25 97 44 16 14 39 16 44 2 2 -6 8 -6 18 0 13 8 12 10 -2 10 -10
0 -18 4 -18 9 0 9 67 23 115 25 11 1 25 4 30 7 19 12 85 3 105 -14 27 -23 33
-22 20 3 -13 24 7 50 39 50 11 0 23 5 26 10 10 16 23 12 57 -20 35 -34 41 -36
58 -15 17 20 7 30 -32 33 -18 2 -35 7 -36 12 -6 15 -32 40 -43 40 -6 0 -7 -5
-4 -10z m-218 -55 c0 -8 -9 -15 -20 -15 -16 0 -17 3 -7 15 7 8 16 15 20 15 3
0 7 -7 7 -15z"/>
<path d="M2200 2832 c0 -12 19 -26 26 -19 2 2 -2 10 -11 17 -9 8 -15 8 -15 2z"/>
<path d="M2428 2793 c12 -2 32 -2 45 0 12 2 2 4 -23 4 -25 0 -35 -2 -22 -4z"/>
<path d="M2545 2780 c3 -5 8 -10 11 -10 2 0 4 5 4 10 0 6 -5 10 -11 10 -5 0
-7 -4 -4 -10z"/>
<path d="M2383 2760 c-22 -5 -60 -18 -83 -30 -50 -26 -126 -93 -132 -118 -3
-10 17 4 44 31 26 26 74 60 106 75 49 23 70 27 147 27 74 0 98 -4 135 -23 l45
-23 -29 24 c-51 44 -132 56 -233 37z"/>
<path d="M2590 2760 c20 -13 33 -13 25 0 -3 6 -14 10 -23 10 -15 0 -15 -2 -2
-10z"/>
<path d="M59 2718 c-7 -12 -21 -30 -33 -39 -20 -16 -21 -28 -24 -268 -3 -138
-1 -262 2 -276 6 -22 9 -24 26 -15 11 6 25 8 30 5 6 -3 7 1 4 9 -4 11 0 16 10
16 18 0 21 17 7 39 -6 10 -3 20 12 32 12 10 18 18 14 19 -4 0 1 10 13 22 12
13 18 29 14 40 -3 10 0 18 7 18 9 0 8 4 -1 15 -10 12 -9 16 3 21 8 3 15 15 15
27 1 12 5 43 10 68 7 39 5 54 -12 90 -15 32 -17 44 -7 47 9 3 8 9 -4 22 -17
19 -23 38 -24 78 -1 12 -7 22 -16 22 -8 0 -15 7 -15 15 0 22 -18 18 -31 -7z"/>
<path d="M2133 2724 c-7 -7 -13 -18 -13 -24 0 -5 -4 -10 -10 -10 -5 0 -10 -7
-10 -16 0 -9 -8 -23 -17 -30 -10 -7 -15 -16 -11 -19 8 -8 55 44 75 82 13 26 4
38 -14 17z"/>
<path d="M2660 2710 c18 -16 35 -30 38 -30 3 0 -7 14 -23 30 -16 17 -33 30
-38 30 -5 0 5 -13 23 -30z"/>
<path d="M20 2709 c0 -5 5 -7 10 -4 6 3 10 8 10 11 0 2 -4 4 -10 4 -5 0 -10
-5 -10 -11z"/>
<path d="M2704 2644 c1 -16 8 -47 15 -68 19 -54 10 -162 -19 -221 -14 -29 -41
-60 -71 -83 -27 -20 -47 -38 -45 -40 2 -2 28 9 57 24 67 34 50 9 -31 -45 -66
-45 -154 -71 -237 -71 -120 0 -207 63 -269 194 -20 42 -37 76 -39 76 -3 0 10
-68 23 -115 6 -22 13 -44 14 -50 2 -5 19 -23 38 -40 19 -16 37 -33 40 -36 9
-12 132 -58 195 -74 52 -14 131 -18 258 -14 9 0 17 4 17 10 0 5 5 9 11 9 7 0
9 -10 5 -25 -8 -30 18 -75 44 -75 9 0 25 -16 36 -37 10 -21 25 -42 32 -46 7
-5 10 -12 7 -18 -4 -5 1 -18 9 -30 8 -12 12 -28 9 -37 -4 -10 -2 -13 5 -8 7 4
12 2 12 -3 0 -15 27 -14 32 0 3 8 10 9 23 2 11 -6 35 -15 53 -21 31 -10 32 -9
26 10 -5 17 -3 20 11 15 9 -4 23 0 31 8 14 13 12 18 -10 39 -14 13 -26 31 -26
40 0 9 -4 16 -9 16 -5 0 -12 8 -15 17 -5 11 2 25 21 40 l28 24 -37 -6 c-29 -4
-38 -3 -38 8 0 8 6 17 14 20 16 6 46 63 46 87 0 9 -12 27 -26 39 -21 18 -24
25 -13 32 25 16 47 10 69 -18 18 -23 21 -37 17 -76 -2 -29 -1 -43 4 -35 12 19
11 83 -2 112 -7 15 -23 28 -40 31 -39 9 -36 21 8 36 36 12 37 11 75 -30 21
-22 42 -41 46 -41 14 0 4 82 -12 98 -9 10 -39 17 -78 19 -58 3 -79 14 -83 43
-7 39 -19 70 -28 70 -6 0 -3 6 6 13 17 12 14 57 -4 57 -5 0 -9 5 -9 11 0 15
31 44 49 44 8 0 16 5 18 11 2 6 -15 9 -47 7 -27 -2 -59 1 -71 8 -27 14 -34 4
-43 -63 -7 -48 -46 -113 -46 -76 0 9 7 21 15 28 21 17 20 51 -1 43 -10 -4 -15
-1 -13 8 3 15 -36 145 -50 168 -6 9 -8 5 -7 -15z"/>
<path d="M2810 2640 c0 -5 5 -10 11 -10 5 0 7 5 4 10 -3 6 -8 10 -11 10 -2 0
-4 -4 -4 -10z"/>
<path d="M2270 2610 c-12 -7 -8 -10 16 -10 42 0 74 -32 74 -76 0 -22 4 -33 10
-29 15 9 2 76 -19 97 -21 22 -62 31 -81 18z"/>
<path d="M2890 2594 c0 -6 26 -34 32 -34 2 0 4 9 5 20 1 14 -4 20 -18 20 -10
0 -19 -3 -19 -6z"/>
<path d="M2208 2573 c-22 -26 -41 -64 -34 -71 3 -3 6 -1 6 5 0 6 11 27 25 47
26 39 28 47 3 19z"/>
<path d="M2210 2540 c-29 -29 -35 -66 -16 -95 28 -42 66 -30 101 32 17 30 17
33 1 57 -20 32 -58 34 -86 6z"/>
<path d="M380 2501 c0 -6 4 -13 10 -16 6 -3 7 1 4 9 -7 18 -14 21 -14 7z"/>
<path d="M2162 2460 c0 -19 2 -27 5 -17 2 9 2 25 0 35 -3 9 -5 1 -5 -18z"/>
<path d="M2361 2473 c-1 -6 -4 -20 -7 -30 -5 -17 -5 -17 6 0 6 10 9 23 6 30
-3 9 -5 9 -5 0z"/>
<path d="M402 2450 c1 -13 11 -24 20 -26 13 -2 15 3 9 19 -11 30 -34 35 -29 7z"/>
<path d="M563 2406 c0 -7 6 -13 14 -13 7 0 13 4 13 8 0 4 -6 9 -13 12 -8 3
-14 0 -14 -7z"/>
<path d="M2180 2386 c0 -3 9 -10 20 -16 11 -6 20 -8 20 -6 0 3 -9 10 -20 16
-11 6 -20 8 -20 6z"/>
<path d="M1882 2325 c11 -20 23 -34 25 -31 6 6 -29 66 -39 66 -4 0 2 -16 14
-35z"/>
<path d="M1598 2273 c7 -3 16 -2 19 1 4 3 -2 6 -13 5 -11 0 -14 -3 -6 -6z"/>
<path d="M1916 2267 c3 -10 9 -15 12 -12 3 3 0 11 -7 18 -10 9 -11 8 -5 -6z"/>
<path d="M2485 2259 c-167 -54 -191 -60 -210 -53 -19 6 -19 6 -4 -10 26 -28
92 -38 162 -25 67 12 141 45 132 59 -3 5 -1 11 4 15 13 7 2 35 -13 34 -6 0
-38 -9 -71 -20z"/>
<path d="M1535 2258 c-32 -12 -56 -37 -49 -50 7 -12 44 -10 44 2 0 6 4 10 9
10 6 0 6 -12 1 -29 -6 -23 -5 -29 5 -25 9 4 11 -2 8 -20 -3 -16 -1 -26 6 -26
16 0 13 -27 -4 -34 -10 -3 -15 1 -15 14 0 10 -4 22 -10 25 -5 3 -10 -3 -10
-14 0 -12 -7 -21 -16 -21 -10 0 -13 -6 -9 -19 3 -12 0 -21 -10 -25 -12 -4 -14
0 -10 22 3 15 2 21 -1 15 -3 -7 -12 -13 -20 -13 -8 0 -14 -4 -14 -8 0 -13 -47
-32 -63 -27 -20 8 -71 -54 -100 -121 -25 -57 -26 -66 -16 -113 9 -41 17 -54
40 -67 18 -9 27 -19 23 -26 -5 -8 -1 -9 10 -5 14 5 17 3 13 -8 -4 -8 -2 -17 3
-20 6 -4 10 -20 10 -37 0 -23 4 -29 16 -24 9 3 20 6 25 6 5 0 9 9 9 20 0 12 7
21 18 21 9 1 24 2 32 3 8 1 21 5 28 9 6 5 17 5 23 1 7 -4 28 -8 47 -10 18 -2
40 -8 46 -14 7 -5 16 -7 19 -3 4 3 7 1 7 -6 0 -7 10 -10 24 -7 15 3 27 -1 30
-10 3 -8 11 -14 19 -14 7 0 24 -11 36 -24 13 -13 39 -27 59 -31 19 -4 53 -13
74 -22 32 -13 36 -18 28 -33 -8 -15 -18 -18 -48 -13 -20 3 -50 11 -67 17 -19
7 -52 9 -90 5 -33 -4 -86 -5 -117 -3 -32 2 -58 1 -58 -4 0 -18 73 -32 205 -37
77 -4 163 -8 192 -9 29 -2 50 1 47 6 -3 4 1 8 9 8 8 0 20 -12 26 -27 6 -16 16
-35 22 -44 8 -10 9 -24 4 -35 -4 -11 -7 -25 -6 -32 1 -8 -3 -20 -10 -28 -8
-10 -8 -14 0 -14 17 0 13 -14 -9 -37 -13 -15 -16 -23 -7 -26 7 -2 -10 -3 -38
-1 -27 1 -40 1 -27 -2 12 -3 22 -9 22 -14 0 -5 -7 -7 -15 -4 -8 4 -22 1 -29
-5 -8 -7 -25 -9 -40 -5 -28 7 -34 -4 -13 -25 10 -10 7 -12 -13 -9 -21 2 -27
-3 -35 -29 -10 -36 -25 -44 -26 -15 0 15 -1 14 -8 -2 -7 -19 -8 -19 -13 2 -4
12 -3 20 1 18 3 -2 15 2 26 10 22 16 13 29 -28 40 -23 5 -29 3 -34 -15 -3 -11
-6 -21 -7 -21 -1 0 -26 9 -56 21 -30 11 -70 25 -88 30 -18 6 -47 23 -65 38
-17 15 -43 36 -56 47 -14 10 -35 30 -48 43 -17 17 -23 20 -23 9 0 -10 -8 -14
-25 -13 -23 3 -25 0 -25 -36 0 -28 4 -39 15 -39 8 0 15 -9 15 -19 0 -28 11
-52 21 -45 5 3 9 -11 9 -31 0 -25 4 -34 12 -29 8 5 9 0 4 -17 -4 -13 -10 -37
-12 -54 -3 -28 -3 -28 5 -5 9 24 9 24 10 -8 1 -22 5 -31 12 -26 8 5 10 -3 7
-24 -2 -17 0 -30 6 -29 5 1 15 -8 21 -20 9 -18 14 -20 24 -10 10 9 12 7 10
-13 -4 -43 0 -60 15 -60 8 0 17 -7 20 -16 9 -22 7 -36 -3 -30 -4 3 -6 -7 -3
-22 4 -26 4 -27 -13 -7 -16 20 -16 20 -12 -3 3 -13 -1 -38 -9 -55 l-15 -32 5
30 c6 41 -9 67 -18 31 -8 -33 -36 -36 -29 -3 4 18 3 19 -6 7 -9 -12 -11 -11
-11 8 0 12 -4 22 -10 22 -5 0 -10 7 -10 16 0 8 -4 13 -9 9 -5 -3 -12 4 -16 15
-7 23 -25 27 -25 6 0 -7 -7 -19 -16 -27 -10 -8 -13 -21 -9 -36 4 -18 1 -23
-14 -23 -10 0 -29 -11 -42 -24 -17 -18 -30 -23 -53 -19 -17 3 -35 9 -40 14
-14 13 -29 11 -20 -2 4 -8 -1 -9 -17 -3 -13 4 -34 8 -45 7 -17 -1 -21 4 -17
21 4 21 4 21 -11 2 -9 -11 -16 -27 -16 -35 -1 -13 -4 -12 -15 3 -14 18 -15 17
-15 -24 0 -42 0 -43 -20 -25 -19 17 -20 17 -27 -1 -15 -35 -42 -25 -52 20 l-9
41 -1 -43 c-1 -24 -5 -41 -10 -38 -5 3 -7 16 -4 29 10 38 -14 6 -31 -43 -15
-44 -15 -45 -16 -12 0 20 -4 31 -10 27 -5 -3 -10 -15 -10 -26 0 -10 -7 -19
-15 -19 -8 0 -15 -8 -15 -17 -1 -17 -2 -17 -14 0 -10 12 -16 15 -21 7 -4 -6
-5 -12 -4 -13 2 -1 14 -8 26 -15 13 -6 53 -17 90 -22 38 -6 85 -14 105 -17 46
-7 86 -42 94 -83 7 -31 22 -38 41 -19 8 8 13 8 17 0 5 -7 12 -7 25 0 13 9 27
6 60 -11 l44 -22 -7 26 c-5 21 -3 24 10 19 14 -5 14 -2 -1 33 -23 54 -35 95
-34 119 0 11 3 14 6 7 2 -6 9 -10 14 -6 8 5 116 -42 129 -56 3 -3 27 -6 53 -6
30 -1 52 -6 58 -15 7 -11 9 -11 9 4 0 9 5 17 10 17 6 0 10 -4 10 -9 0 -5 37
-7 83 -4 108 5 117 6 117 15 0 4 6 5 13 2 8 -3 40 0 73 6 120 23 130 23 117 9
-7 -7 -13 -26 -13 -41 0 -18 -13 -42 -36 -68 -39 -43 -40 -63 -3 -36 20 14 23
14 34 -1 8 -11 18 -14 31 -8 10 5 30 9 44 10 58 6 106 20 136 40 18 12 54 27
81 34 26 7 55 16 64 21 9 5 37 11 63 15 25 4 49 11 52 16 3 5 16 6 28 3 15 -3
29 1 40 11 11 11 25 15 41 11 17 -4 28 0 38 15 11 15 16 17 20 7 4 -10 10 -8
21 6 18 22 21 46 6 46 -6 0 -9 -3 -9 -7 4 -24 -4 -25 -16 -3 l-14 25 -1 -25
c-1 -24 -1 -24 -15 -6 -14 18 -15 18 -29 -15 l-15 -34 1 43 c2 53 -8 64 -19
21 -11 -39 -33 -51 -34 -17 -1 23 -1 23 -9 -2 -6 -22 -8 -23 -15 -7 -9 22 -21
22 -48 -3 -19 -19 -23 -19 -33 -5 -11 14 -13 14 -27 0 -9 -8 -18 -11 -22 -6
-3 6 -15 8 -26 6 -16 -3 -19 0 -14 15 9 29 0 24 -25 -12 -16 -24 -20 -27 -15
-10 7 26 -10 30 -19 5 -5 -13 -9 -14 -15 -5 -6 10 -11 10 -21 -3 -16 -19 -30
-19 -30 0 0 18 -16 20 -26 4 -5 -8 -10 -6 -16 5 -7 13 -13 14 -23 6 -16 -13
-75 -7 -104 11 -11 8 -21 24 -21 36 0 14 -6 23 -15 23 -9 0 -12 6 -9 15 4 8 1
15 -6 15 -9 0 -7 6 4 19 14 16 15 24 6 40 -9 17 -8 22 5 27 8 4 14 11 13 18
-4 15 35 52 64 61 12 4 29 12 36 17 8 7 12 6 12 -3 0 -8 6 -3 13 11 7 14 25
31 41 39 16 7 31 22 33 32 4 15 8 17 19 8 11 -9 14 -8 14 4 0 8 7 17 15 21 8
3 15 2 15 -3 0 -10 69 12 79 25 16 24 84 65 96 60 11 -4 15 2 15 21 0 21 3 24
12 15 18 -18 28 -15 28 10 0 20 1 21 20 3 11 -10 20 -13 20 -8 0 6 -7 16 -15
23 -11 9 -12 16 -5 25 5 6 7 15 3 19 -14 14 -13 46 2 46 8 0 15 5 15 10 0 6
-7 10 -15 10 -8 0 -15 5 -15 10 0 6 3 10 8 10 9 0 54 -30 65 -44 9 -11 5 4
-10 41 -4 11 -3 14 6 9 14 -9 43 12 35 25 -3 5 -1 9 5 9 5 0 13 -4 16 -10 3
-5 11 -10 16 -10 6 0 8 4 5 9 -3 5 1 12 10 15 14 5 14 9 3 23 -12 14 -12 16 1
11 8 -3 24 -10 35 -14 l20 -7 -20 23 c-11 13 -28 32 -38 42 -17 18 -17 20 8
49 33 40 23 56 -13 21 -15 -15 -44 -40 -66 -56 -29 -22 -40 -26 -46 -15 -7 10
-12 10 -22 1 -11 -9 -17 -9 -27 1 -9 9 -14 9 -21 -3 -6 -9 -5 -19 0 -24 18
-18 11 -58 -9 -63 -11 -3 -22 -11 -25 -18 -7 -19 -64 -46 -72 -34 -3 6 -18 8
-32 4 -24 -5 -27 -2 -27 20 0 17 6 25 18 26 26 2 29 3 65 22 17 10 32 24 32
31 0 7 12 25 26 39 l26 26 -26 12 c-14 7 -23 16 -20 21 3 4 10 5 16 2 18 -11
88 29 95 54 4 18 8 20 14 10 7 -10 11 -9 21 5 9 11 20 16 31 11 19 -7 22 -30
6 -71 -10 -26 -9 -27 7 -11 12 12 18 35 19 72 1 31 4 58 7 62 4 3 19 -6 35
-20 15 -14 39 -26 53 -25 23 0 23 1 5 9 -17 7 -17 9 -3 9 16 1 15 7 -10 52
-15 28 -38 63 -52 79 -27 30 -45 57 -71 108 -10 18 -22 38 -27 45 -5 7 -12 22
-15 34 -5 21 -2 20 29 -9 19 -18 34 -38 34 -44 0 -7 7 -15 16 -18 8 -3 12 -11
8 -17 -4 -7 -3 -9 4 -5 13 8 42 -20 42 -41 0 -9 3 -13 7 -10 9 10 53 -54 46
-67 -3 -6 -3 -8 2 -4 5 5 17 -6 27 -23 16 -26 21 -29 34 -18 12 10 17 8 29 -7
10 -14 14 -15 15 -5 0 8 -37 50 -81 93 -45 43 -77 78 -72 78 5 0 14 -5 21 -12
7 -7 12 -8 12 -2 0 15 -22 34 -40 34 -9 0 -27 11 -40 25 l-23 24 33 -4 33 -4
-29 30 c-30 31 -50 38 -40 14 9 -24 -11 -17 -46 15 l-33 30 30 -5 30 -6 -34
30 c-19 17 -50 36 -68 42 -18 6 -33 16 -33 24 0 13 -49 38 -66 34 -15 -5 -54
12 -54 22 0 5 -9 9 -19 9 -11 0 -23 5 -26 10 -3 6 -19 10 -36 10 -16 0 -29 3
-29 8 0 4 -17 12 -37 19 l-37 11 24 -19 c14 -11 77 -46 141 -78 64 -32 123
-63 130 -70 46 -39 63 -51 72 -51 6 0 7 -3 4 -6 -6 -6 -99 35 -262 117 -33 16
-67 30 -75 30 -21 0 -159 129 -140 130 8 1 22 0 30 -1 13 -1 12 1 -1 15 -15
16 -19 16 -48 1 -17 -9 -31 -13 -31 -9 0 5 -5 1 -10 -7 -8 -12 -10 -9 -10 12
0 15 -4 29 -9 32 -21 14 -213 29 -234 19 -12 -6 -35 -11 -51 -12 -21 -1 -27 3
-22 14 6 17 2 17 -39 3z m286 -69 c22 -11 15 -34 -8 -25 -8 3 -11 1 -8 -4 3
-6 -2 -13 -11 -17 -10 -4 -19 -2 -22 5 -2 7 -13 12 -25 12 -18 0 -19 2 -7 10
11 7 11 10 2 10 -7 0 -10 5 -7 10 8 13 61 13 86 -1z m-221 -59 c0 -11 -2 -20
-4 -20 -2 0 -6 9 -9 20 -3 11 -1 20 4 20 5 0 9 -9 9 -20z m-194 -125 c-26 -19
-42 -19 -26 0 7 8 20 15 29 15 13 -1 13 -3 -3 -15z m129 5 c-3 -5 -11 -10 -16
-10 -6 0 -7 5 -4 10 3 6 11 10 16 10 6 0 7 -4 4 -10z m211 -27 c-10 -10 -19 5
-10 18 6 11 8 11 12 0 2 -7 1 -15 -2 -18z m-156 -33 c0 -16 -4 -30 -10 -30 -5
0 -10 14 -10 30 0 17 5 30 10 30 6 0 10 -13 10 -30z m830 8 c0 -6 -6 -5 -15 2
-8 7 -15 14 -15 16 0 2 7 1 15 -2 8 -4 15 -11 15 -16z m-1094 -25 c-13 -24
-15 -25 -16 -7 0 11 5 25 12 32 19 19 21 6 4 -25z m49 7 c-10 -11 -20 -18 -23
-15 -3 3 3 14 13 25 10 11 20 18 23 15 3 -3 -3 -14 -13 -25z m55 21 c0 -5 -7
-14 -15 -21 -16 -14 -18 -10 -9 14 6 17 24 22 24 7z m58 -20 c-13 -22 -28 -28
-28 -12 0 12 31 43 37 37 2 -2 -2 -13 -9 -25z m200 -32 c-4 -28 -31 -32 -36
-6 -5 23 18 51 30 39 6 -6 8 -20 6 -33z m86 -23 c-6 -16 -24 -23 -24 -8 0 10
22 33 27 28 2 -2 1 -11 -3 -20z m833 -282 c-3 -3 -12 -4 -19 -1 -8 3 -5 6 6 6
11 1 17 -2 13 -5z m-201 -261 c-10 -10 -19 5 -10 18 6 11 8 11 12 0 2 -7 1
-15 -2 -18z m-1059 -65 c-3 -7 -5 -2 -5 12 0 14 2 19 5 13 2 -7 2 -19 0 -25z
m967 -73 c-9 -14 -20 -25 -25 -25 -5 0 -9 -6 -9 -13 0 -8 -12 -19 -26 -25 -16
-8 -23 -8 -19 -2 4 7 -3 9 -19 5 -14 -3 -37 -7 -51 -10 -20 -4 -25 -1 -25 14
0 15 10 21 43 26 23 4 51 14 62 21 11 8 29 14 42 14 12 0 25 5 28 10 3 6 8 10
11 10 2 0 -3 -11 -12 -25z m-750 -46 c-5 -9 -44 -13 -44 -5 0 2 -3 11 -6 20
-5 13 -2 14 25 5 17 -6 28 -15 25 -20z m86 -20 c10 -5 11 -8 3 -9 -7 0 -12 -3
-12 -7 4 -27 -1 -35 -16 -23 -8 6 -13 17 -12 23 1 7 -8 11 -20 9 -22 -3 -30 8
-17 21 8 7 51 -1 74 -14z m56 -34 c-7 -19 -36 -19 -36 0 0 17 33 38 38 24 2
-5 1 -16 -2 -24z m121 3 c-3 -8 -6 -5 -6 6 -1 11 2 17 5 13 3 -3 4 -12 1 -19z
m350 -54 c2 -5 -9 -9 -24 -8 -16 1 -35 -3 -45 -7 -11 -6 -18 -4 -21 6 -4 10 4
15 31 18 46 4 55 3 59 -9z m-717 -75 c0 -5 -4 -9 -10 -9 -5 0 -10 7 -10 16 0
8 5 12 10 9 6 -3 10 -10 10 -16z m77 -221 c-3 -7 -5 -2 -5 12 0 14 2 19 5 13
2 -7 2 -19 0 -25z m-547 -113 c0 -8 -2 -15 -4 -15 -2 0 -6 7 -10 15 -3 8 -1
15 4 15 6 0 10 -7 10 -15z"/>
<path d="M520 2211 c0 -11 5 -23 10 -26 6 -4 10 5 10 19 0 14 -4 26 -10 26 -5
0 -10 -9 -10 -19z"/>
<path d="M480 2176 c0 -2 7 -9 15 -16 9 -7 15 -8 15 -2 0 5 -7 12 -15 16 -8 3
-15 4 -15 2z"/>
<path d="M2030 2160 c13 -11 25 -20 28 -20 3 0 -3 9 -13 20 -10 11 -23 20 -28
20 -6 0 0 -9 13 -20z"/>
<path d="M306 2086 c6 -16 34 -30 34 -18 0 10 -22 32 -32 32 -4 0 -5 -6 -2
-14z"/>
<path d="M2603 2046 c0 -8 7 -18 14 -21 10 -3 13 1 11 12 -4 21 -25 28 -25 9z"/>
<path d="M682 1980 c7 -11 17 -20 22 -20 5 0 1 9 -9 20 -10 11 -20 20 -22 20
-2 0 2 -9 9 -20z"/>
<path d="M1020 1961 c0 -6 4 -13 10 -16 6 -3 7 1 4 9 -7 18 -14 21 -14 7z"/>
<path d="M630 1949 c0 -5 5 -7 10 -4 6 3 10 2 10 -4 0 -5 -6 -12 -12 -14 -7
-3 -8 -6 -3 -6 6 0 17 4 25 9 13 9 13 11 0 20 -20 13 -30 13 -30 -1z"/>
<path d="M830 1945 c0 -13 20 -35 33 -35 4 0 6 4 2 9 -3 6 2 14 11 19 14 8 11
10 -15 14 -19 3 -31 0 -31 -7z"/>
<path d="M2730 1951 c0 -6 4 -13 10 -16 6 -3 7 1 4 9 -7 18 -14 21 -14 7z"/>
<path d="M971 1933 c-19 -4 -21 -7 -10 -14 11 -7 10 -9 -6 -9 -19 -1 -19 -1
-2 -11 19 -11 52 5 42 21 -3 5 3 11 12 13 23 6 -4 6 -36 0z"/>
<path d="M731 1927 c2 -1 13 -9 24 -17 19 -14 19 -14 6 3 -7 9 -18 17 -24 17
-6 0 -8 -1 -6 -3z"/>
<path d="M442 1894 c10 -10 20 -15 24 -12 3 4 -5 12 -18 18 -22 12 -22 12 -6
-6z"/>
<path d="M720 1904 c0 -3 17 -22 38 -41 20 -20 29 -30 18 -22 -10 7 -33 14
-51 16 -26 1 -35 -3 -44 -23 -6 -14 -8 -23 -3 -20 4 2 19 -4 32 -15 14 -10 20
-19 15 -19 -6 0 -17 6 -24 13 -11 10 -13 9 -8 -5 4 -10 2 -18 -2 -18 -5 0 -8
-8 -6 -17 1 -10 0 -12 -2 -5 -3 6 -8 12 -13 12 -5 0 -17 3 -27 7 -13 4 -10 -2
10 -24 29 -31 24 -52 -9 -39 -10 4 -12 2 -8 -6 5 -7 0 -9 -14 -6 -18 5 -19 3
-10 -18 6 -13 15 -24 20 -24 4 0 8 -4 8 -10 0 -5 -12 -11 -27 -11 l-28 -1 30
-7 c28 -6 29 -7 10 -19 -11 -6 -15 -12 -9 -12 12 0 84 62 84 72 0 3 -12 9 -26
12 -15 4 -24 9 -22 11 2 3 19 0 37 -5 29 -8 31 -7 26 9 -3 12 4 30 18 47 19
23 23 34 16 53 -8 20 -7 23 9 19 12 -3 32 7 55 27 41 37 43 41 23 48 -11 4
-13 1 -9 -10 5 -13 2 -15 -11 -10 -11 5 -15 3 -10 -4 4 -7 1 -10 -7 -7 -8 3
-13 13 -11 23 2 10 -1 14 -8 10 -6 -4 -22 1 -35 9 -14 9 -25 14 -25 10z"/>
<path d="M580 1880 c8 -5 20 -10 25 -10 6 0 3 5 -5 10 -8 5 -19 10 -25 10 -5
0 -3 -5 5 -10z"/>
<path d="M438 1853 c13 -13 28 -23 35 -23 7 0 3 6 -8 12 -11 6 -27 16 -35 22
-9 6 -5 1 8 -11z"/>
<path d="M357 1849 c7 -7 15 -10 18 -7 3 3 -2 9 -12 12 -14 6 -15 5 -6 -5z"/>
<path d="M936 1844 c-9 -8 -20 -13 -25 -9 -5 3 -12 1 -16 -5 -3 -5 3 -10 14
-10 11 0 23 5 26 10 3 6 15 10 25 10 10 0 22 5 25 10 10 16 -32 11 -49 -6z"/>
<path d="M288 1843 c7 -3 16 -2 19 1 4 3 -2 6 -13 5 -11 0 -14 -3 -6 -6z"/>
<path d="M370 1816 c0 -2 7 -6 15 -10 8 -3 15 -1 15 4 0 6 -7 10 -15 10 -8 0
-15 -2 -15 -4z"/>
<path d="M399 1785 c0 0 -2 -7 -4 -16 -2 -13 2 -15 19 -11 11 3 27 11 34 18
10 11 7 13 -18 11 -16 -1 -30 -2 -31 -2z"/>
<path d="M2990 1780 c0 -8 6 -43 14 -77 11 -56 11 -63 -3 -63 -12 -1 -10 -6 8
-20 29 -25 52 -26 45 -2 -3 9 3 5 12 -10 26 -39 48 -37 39 3 -4 19 -3 29 2 26
18 -11 1 47 -19 64 -10 9 -18 21 -18 28 0 6 -7 11 -15 11 -8 0 -15 6 -15 14 0
7 -7 19 -15 26 -12 10 -15 10 -15 -1 0 -11 -2 -11 -10 1 -9 13 -10 13 -10 0z"/>
<path d="M243 1752 c-17 -10 24 -72 47 -72 20 0 92 -29 73 -30 -7 0 -13 -4
-13 -10 0 -5 8 -9 18 -8 31 2 85 -2 81 -7 -3 -2 -31 -7 -64 -10 -80 -8 -103
-14 -109 -32 -5 -11 -2 -13 11 -8 21 8 22 8 46 6 10 0 16 -5 12 -10 -3 -5 7
-12 22 -15 16 -2 4 -3 -25 -2 -29 2 -55 -1 -58 -5 -3 -5 12 -9 33 -10 21 0 47
-4 58 -9 19 -8 19 -9 -2 -9 -13 -1 -23 -5 -23 -11 0 -12 0 -12 39 1 24 9 29
14 19 20 -10 7 -8 9 7 9 11 0 27 -5 35 -10 13 -8 13 -10 -1 -10 -9 0 -19 -6
-22 -13 -3 -7 -22 -14 -43 -15 -47 -4 -61 -12 -40 -24 14 -8 15 -13 5 -24 -9
-11 -7 -14 10 -14 24 0 27 -10 9 -29 -11 -11 -8 -13 15 -9 30 6 48 -9 27 -22
-9 -6 -6 -10 10 -15 15 -5 20 -13 17 -26 -6 -23 15 -26 33 -4 10 12 10 15 -1
15 -7 0 0 14 17 33 52 57 95 117 79 111 -23 -9 -18 4 12 32 30 28 37 59 14 62
-87 11 -107 15 -116 23 -5 5 2 9 18 9 32 0 36 16 7 25 -11 3 -20 11 -20 16 0
5 -12 9 -26 9 -14 0 -33 7 -42 16 -15 15 -13 16 24 11 21 -3 53 -8 69 -11 29
-6 29 -6 -3 7 -18 7 -30 16 -26 20 4 4 0 7 -10 7 -10 0 -14 5 -11 11 4 6 19 7
36 4 16 -4 29 -2 29 3 0 11 -77 25 -90 17 -5 -3 -7 -12 -3 -20 4 -12 -3 -15
-28 -14 -24 1 -27 3 -11 6 33 6 27 23 -9 23 -24 0 -30 -3 -25 -16 3 -9 6 -18
6 -20 0 -2 7 -4 15 -4 8 0 15 -4 15 -8 0 -5 -13 -7 -30 -4 -17 2 -30 10 -30
18 0 10 -13 14 -41 14 -24 0 -38 4 -34 10 3 6 20 10 37 10 17 0 29 2 27 4 -10
8 -66 14 -76 8z m77 -52 c0 -5 -4 -10 -9 -10 -6 0 -13 5 -16 10 -3 6 1 10 9
10 9 0 16 -4 16 -10z m53 -107 c-7 -2 -21 -2 -30 0 -10 3 -4 5 12 5 17 0 24
-2 18 -5z m87 -13 c0 -13 -20 -13 -40 0 -12 8 -9 10 13 10 15 0 27 -4 27 -10z
m-67 -7 c-7 -2 -19 -2 -25 0 -7 3 -2 5 12 5 14 0 19 -2 13 -5z"/>
<path d="M1027 1704 c-12 -13 -8 -28 17 -56 29 -35 52 -38 35 -5 -7 12 -15 24
-19 27 -4 3 -11 13 -16 23 -6 10 -13 14 -17 11z"/>
<path d="M545 1610 c27 -12 43 -12 25 0 -8 5 -22 9 -30 9 -10 0 -8 -3 5 -9z"/>
<path d="M1100 1611 c0 -4 16 -22 35 -41 19 -19 35 -31 35 -28 0 3 -16 22 -35
41 -19 19 -35 32 -35 28z"/>
<path d="M2712 1571 c-23 -6 -23 -6 8 -30 24 -17 35 -20 43 -12 8 8 8 16 1 28
-13 20 -22 23 -52 14z"/>
<path d="M290 1522 c0 -5 7 -13 16 -16 10 -4 14 -1 12 6 -5 15 -28 23 -28 10z"/>
<path d="M1196 1509 c12 -13 20 -16 22 -9 3 7 -2 16 -9 21 -25 16 -32 9 -13
-12z"/>
<path d="M2788 1492 c-4 -14 -14 -22 -27 -22 -12 0 -21 -6 -21 -14 0 -8 7 -13
16 -12 9 0 21 -8 28 -19 6 -11 12 -22 14 -25 2 -3 10 3 17 14 8 10 18 15 24
11 19 -11 12 -35 -11 -45 -13 -5 -17 -9 -10 -9 7 -1 11 -5 8 -10 -3 -4 6 -21
19 -37 21 -24 27 -27 35 -14 15 23 12 30 -10 30 -23 0 -27 18 -5 26 22 9 18
24 -18 70 -17 23 -37 50 -43 60 -10 17 -11 17 -16 -4z"/>
<path d="M2680 1490 c0 -6 -7 -10 -16 -10 -13 0 -14 -3 -5 -14 7 -8 20 -13 29
-12 22 4 28 32 7 39 -8 4 -15 2 -15 -3z"/>
<path d="M1460 1405 c0 -18 43 -75 74 -99 43 -32 50 -33 44 -1 -4 17 -1 25 8
25 7 0 11 -6 8 -14 -4 -10 2 -12 20 -9 14 3 34 2 43 -2 10 -5 29 -10 43 -12
14 -2 36 -8 50 -13 64 -23 230 -23 230 1 0 4 -7 6 -15 3 -8 -4 -15 -2 -15 3 0
13 -49 35 -61 28 -5 -4 -9 -13 -9 -21 0 -19 -5 -18 -100 16 -46 17 -92 30
-102 30 -11 0 -51 14 -88 30 -73 32 -130 47 -130 35z"/>
<path d="M2730 1382 c0 -14 36 -52 50 -52 10 0 10 -3 0 -15 -16 -19 2 -65 25
-65 8 0 14 -6 13 -12 -4 -17 40 -22 58 -8 21 18 17 38 -8 45 -31 10 -74 51
-88 86 -11 26 -50 42 -50 21z"/>
<path d="M1325 1350 c-3 -5 -1 -10 4 -10 6 0 11 5 11 10 0 6 -2 10 -4 10 -3 0
-8 -4 -11 -10z"/>
<path d="M1290 1302 c0 -18 12 -42 21 -42 14 0 10 26 -6 40 -9 8 -15 8 -15 2z"/>
<path d="M3287 1272 c12 -7 -6 -9 -101 -11 -21 0 -27 -4 -22 -16 4 -11 -1 -15
-19 -15 -18 0 -23 -5 -22 -20 1 -22 13 -27 20 -7 4 9 6 9 6 -1 1 -7 6 -10 13
-6 8 5 9 -2 5 -24 -4 -19 -1 -42 8 -58 10 -20 11 -32 3 -41 -8 -10 -6 -13 6
-13 21 0 21 -43 0 -61 -13 -10 -17 -10 -24 1 -6 10 -12 11 -22 4 -22 -18 -81
-8 -96 15 -8 12 -22 21 -31 21 -9 0 -27 7 -39 16 -12 8 -22 11 -22 7 0 -14 62
-69 98 -87 17 -9 32 -18 32 -21 0 -15 -186 -102 -280 -131 l-45 -14 40 6 c60
9 169 49 249 92 l71 39 50 -26 c36 -19 51 -33 53 -51 5 -33 25 -46 106 -65 97
-24 168 -9 186 40 6 16 15 23 24 19 21 -8 65 18 110 65 35 35 39 46 39 88 0
45 -2 49 -64 105 -82 74 -134 98 -226 105 -72 6 -80 11 -74 46 0 4 -9 7 -21 7
-15 0 -19 -3 -11 -8z"/>
<path d="M1950 1250 c0 -5 5 -10 10 -10 6 0 10 5 10 10 0 6 -4 10 -10 10 -5 0
-10 -4 -10 -10z"/>
<path d="M1810 1190 c0 -5 5 -10 10 -10 6 0 10 5 10 10 0 6 -4 10 -10 10 -5 0
-10 -4 -10 -10z"/>
<path d="M2860 1064 c-86 -41 -189 -71 -280 -84 -94 -13 -114 -20 -54 -20 99
0 314 64 386 114 33 23 11 19 -52 -10z"/>
<path d="M2290 386 c0 -2 11 -24 25 -47 28 -49 30 -59 14 -59 -7 0 -17 -7 -24
-16 -11 -16 -14 -16 -41 1 -16 9 -43 36 -59 59 -17 22 -40 43 -50 45 -19 3
-19 2 1 -20 12 -13 24 -38 27 -54 5 -25 1 -32 -20 -42 -22 -11 -30 -9 -58 13
-31 23 -40 25 -164 25 -102 1 -135 4 -146 16 -20 19 -69 33 -85 23 -18 -11 5
-49 33 -54 32 -7 85 -15 137 -21 50 -6 259 -41 303 -51 21 -5 27 -3 27 11 0
14 6 16 43 10 23 -4 82 -8 130 -9 82 -2 88 0 85 18 -4 27 -36 45 -47 27 -6
-10 -16 -1 -37 35 -34 60 -63 94 -81 94 -7 0 -13 -2 -13 -4z"/>
<path d="M1080 320 c0 -12 -4 -18 -10 -15 -5 3 -10 -1 -10 -10 0 -11 5 -15 15
-12 8 4 17 2 20 -3 4 -6 -1 -10 -9 -10 -9 0 -16 -5 -16 -12 0 -6 -10 -22 -21
-34 -17 -18 -26 -21 -41 -13 -10 5 -22 8 -27 5 -5 -3 -11 3 -14 14 -5 19 -7
18 -35 -10 -32 -32 -47 -37 -57 -20 -10 16 -35 -8 -35 -31 0 -25 25 -24 73 1
20 11 41 20 47 20 5 0 10 -9 10 -20 0 -28 27 -25 74 6 21 14 45 27 54 29 13 1
17 12 16 46 -1 23 -6 45 -12 47 -6 2 -9 9 -6 17 3 7 1 16 -5 20 -7 3 -11 -3
-11 -15z"/>
<path d="M1267 318 c-41 -18 -50 -19 -59 -7 -7 10 -7 7 -3 -10 5 -16 4 -21 -4
-17 -7 5 -9 1 -5 -8 3 -9 1 -16 -6 -16 -6 0 -8 -4 -5 -10 3 -5 1 -10 -4 -10
-6 0 -11 -8 -11 -18 0 -13 -7 -18 -22 -18 -17 1 -24 -5 -26 -22 -6 -43 25 -36
82 21 31 30 71 62 90 71 31 15 46 33 46 57 0 14 -20 10 -73 -13z"/>
<path d="M955 300 c3 -5 8 -10 11 -10 2 0 4 5 4 10 0 6 -5 10 -11 10 -5 0 -7
-4 -4 -10z"/>
<path d="M930 266 c0 -8 -7 -22 -16 -30 -16 -16 -8 -22 11 -8 11 8 20 52 11
52 -3 0 -6 -6 -6 -14z"/>
</g>
</svg>
